<svg version="1.2" xmlns="http://www.w3.org/2000/svg" viewBox="0 0 800 800" width="800" height="800"><style>.a{fill:#fff}</style><path class="a" d="m44.9 509.6q0 12.1-11.1 21.6l2.6 0.4h3.6q5.6-1 10.5-12.8 1.7-5.9 7.6-39.8 1.9-10.1 7.2-40.3 5.6-30.5 10.2-56.1 4.6-25.6 4.6-26h-19.7q-19.7 0-20.7-0.6-3.6-1.7-3.6-5.3 0-1.6 1.3-6.2 1.3-4.9 2-5.9 0.3-1 1.9-1.7 1.3-0.6 22-0.6h20.4l0.3-0.7q0-2.3 6.2-33.5 4.6-21.3 17.8-34.4 13.1-13.5 32.8-15.8h3.6q9.5 0 11.5 0.4 13.1 2.3 20.6 9.5 7.6 7.2 7.6 17.7 0 11.2-7.9 19.4-7.5 8.2-18.4 8.2-8.2 0-13.4-4.6-4.9-4.6-4.9-12.5 0-10.5 8.2-18.7 2.3-2.3 2.3-2.6-1.7 0-3.6-0.4-3.3 0-5 0.7-6.9 3.6-9.5 12.5-1.6 4.9-2 18.7l-0.3 11.8-2 11.2q-1.9 11.8-2.3 12.1v1h45.7q1.9 1 3.6 2.6 1.6 2.3 0 8.5-1.7 5.9-3 7.6-1.9 1.6-26.6 1.6h-23.3v0.7q-0.3 0.3-7.5 41.3-10.2 58.1-14.1 73.6-10.2 41.6-28.9 59.7-11.5 11.5-25.3 15.4-2.9 0.7-9.2 0.7-15.4 0-25.9-7.3-10.5-7.2-10.5-20.3 0-11.2 7.6-19.4 7.8-8.2 19-8.2 7.9 0 12.8 5 5.2 4.5 5.2 11.8z"/><path class="a" d="m200.7 370.1q5.6-43 25.6-78.1 20.1-35.5 50.9-56.2h4.9q5.3 0 6.3 0.7 2.3 1.3 2.3 3.9 0 2-5 6.9-15.4 17.1-24.6 33.8-25.6 47.3-25.6 118.8 0 102.4 54.8 157.3 0.4 0.6 0.4 1.6 0 3.3-2.3 4.3-1 0.6-6.3 0.6h-4.9q-30.8-20.3-50.9-55.8-20-35.4-25.6-78.4-1.6-12.8-1.6-29.9 0-16.7 1.6-29.5z"/><path fill-rule="evenodd" class="a" d="m392.2 487.6q-45 0-70.2-22-25.3-22-25.3-64 0-6.2 0.3-8.2 4.3-45.3 31.9-81.7 20.3-27.6 51.5-44 31.5-16.4 70.5-16.4 38.8 0 62.7 16.7 24.3 16.4 30.9 46.3 2.3 12.1 2.3 21.7 0 21.9-7.9 45.2-17.7 56.2-65.3 84.4-35.1 22-81.4 22zm105-166.1q0-24.6-13.4-38.4-13.2-13.8-36.8-13.8-15.7 0-31.5 6.9-15.4 6.9-26.6 18.7-19.7 20.7-30.5 58.4-10.8 39.8-10.8 61.1 0 25.3 12.8 40 12.8 14.5 36.4 14.5 23 0 43.3-14.1 27.6-19.1 42-61.4 8.9-25.3 12.8-50.2 2.3-13.8 2.3-21.7z"/><path class="a" d="m553.2 545.5l-4.8 0.2q-2.8-1.1-2.8-3.2 0-1 0.5-2.9 0.6-1.9 1-3.3 0.6-1.3 0.8-1.5 1.1-0.9 5.3-0.9 17.4 0 21.1-2.5 1.1-0.4 47.2-47.7l1.8-1.9-1-2.5q-0.4-0.7-12.6-27.7l-11.5-25.3h-8.6q-8.6 0-9.4-0.4-1.9-0.7-1.9-2.6 0-1.2 0.6-3.5 0.2-0.6 0.3-1.5 0.4-1 0.4-1.4 0.2-0.3 0.4-0.7 0.4-0.6 0.8-0.8 0.4-0.4 0.9-0.6 0.6-0.3 3.9-0.3 9.1 0.3 28.9 0.3 4.9 0 14.7-0.2 9.9-0.1 14.5-0.1 3.3 0 4 2.8 0 0.8-0.7 3.9-1 3.8-2.1 4.5-1 0.6-6.5 0.6-5.6 0-6 0.2h-0.7l7.2 15.9q7.1 15.9 7.3 15.9 0 0.2 7.7-7.5 7.6-7.8 15.3-15.7l7.6-7.8q-1.5-0.6-9-1-2.8 0-4.4-0.4-1.7-0.7-1.7-2.6 0-3.9 1.7-7.3 1-1 2.3-1.5l7.3 0.1q4.6 0.2 20.9 0.2 15.8 0 19.1-0.2 5-0.1 5.9 0.2 1.7 0.8 1.7 2.7 0 3.8-1.7 7.3-1.5 1.5-3.6 1.5h-2.1q-10.7 0-18 1.2-2.1 0.5-3.3 1.3-0.5 0.4-20.6 20.7-19.9 20.3-19.9 20.4 0 0.4 14.5 32l14.6 32h8.4q8.6 0 9.4 0.3 1.9 1 1.9 3.1 0 1-0.8 3.8-0.8 2.7-1.1 3.3-0.8 1.3-3.7 1.3-3.6 0-12.8-0.2-9.2-0.2-16.5-0.2-7 0-16.6 0.2-9.4 0.2-13.2 0.2-4.6 0-4.6-3.4 0-0.2 0.8-3.7 0.7-3.6 1.7-4 1.1-0.6 7.1-0.7l6.1-0.2q0.2-0.2-9-20.3-9-20.1-9.2-20.1-0.4 0-10.1 9.9-9.6 10-19.2 19.9l-9.5 9.8q0 0.4 9 1 0.9 0 2.5 0l1.3 0.1q2.3 0.6 2.3 3.3 0 3.3-1.7 6.7-0.8 1.1-2.3 1.7l-7.5-0.2q-4.6-0.2-21-0.2-15.7 0-19 0.2z"/><path class="a" d="m723 236.2l1.3-0.3q1.6-0.1 3.3 0h3.9q2.3 1.9 9.2 7.8 59.1 53.9 59.1 156.3 0 40.3-9.5 72.8-15.1 51.9-49.6 83.4-2.3 1.9-5.2 4.6-3 2.3-4 3.2h-3.9q-4 0-5.3-0.6-1-0.7-1-3.3 0.4-0.3 3.7-4.3 50.8-52.8 50.8-155.9 0-103-50.8-155.8-3.3-4-3.7-4.3 0-2.6 1.7-3.6z"/></svg>