<svg version="1.2" xmlns="http://www.w3.org/2000/svg" viewBox="0 0 480 320" width="480" height="320"><style>.a{fill:#292929}.b{fill:none;stroke:#c5c5c5;stroke-linecap:round;stroke-linejoin:round;stroke-width:2}.c{opacity:.1;fill:#fff}.d{fill:#fff}</style><path fill-rule="evenodd" d="m480 0v320h-480v-320z"/><path fill-rule="evenodd" class="a" d="m480 34v1h-480v-1z"/><path fill-rule="evenodd" d="m11 6h12c2.8 0 5 2.2 5 5v12c0 2.8-2.2 5-5 5h-12c-2.8 0-5-2.2-5-5v-12c0-2.8 2.2-5 5-5z"/><path fill-rule="evenodd" class="b" d="m17 25c-4.4 0-8-3.6-8-8 0-4.4 3.6-8 8-8 4.4 0 8 3.6 8 8 0 4.4-3.6 8-8 8z"/><path fill-rule="evenodd" class="c" d="m39 6h12c2.8 0 5 2.2 5 5v12c0 2.8-2.2 5-5 5h-12c-2.8 0-5-2.2-5-5v-12c0-2.8 2.2-5 5-5z"/><path fill-rule="evenodd" class="b" d="m45 25c-4.4 0-8-3.6-8-8 0-4.4 3.6-8 8-8 4.4 0 8 3.6 8 8 0 4.4-3.6 8-8 8z"/><path fill-rule="evenodd" class="a" d="m241 320h-1v-286h1z"/><path class="d" d="m46.6 110h-6.1l-22.7-60.1h6.1zm25.2-6.5h-2.7q-3.6 0-6.3-1.1-2.6-1.2-4.2-3.2-1.5-2.1-1.9-4.9h5.8q0.4 1.9 2 2.9 1.8 1.1 4.6 1.1h2.7q3.4 0 5-1.3 1.7-1.4 1.7-3.7 0-2.3-1.5-3.5-1.5-1.4-4.5-1.8l-4.7-0.8q-5.2-0.9-7.7-3.2-2.5-2.4-2.5-6.9 0-4.7 3-7.2 3-2.7 9-2.7h2.4q5.1 0 8.2 2.4 3 2.4 3.7 6.4h-5.8q-0.4-1.7-1.9-2.6-1.5-1.1-4.2-1.1h-2.4q-3.3 0-4.8 1.3-1.5 1.2-1.5 3.6 0 2.2 1.3 3.2 1.3 1 4 1.5l4.8 0.8q5.7 0.8 8.2 3.3 2.7 2.4 2.7 7 0 4.9-3.2 7.7-3 2.8-9.3 2.8zm37.3 0.1q-6.1 0-9.7-3.6-3.7-3.7-3.7-9.9v-22.4h5.8v22.4q0 4 2 6.2 2.1 2.2 5.6 2.2 3.6 0 5.6-2.2 2.2-2.2 2.2-6.2v-22.4h5.7v22.4q0 6.2-3.7 9.9-3.7 3.6-9.8 3.6zm28.4-0.7h-5.3v-35.2h5.1v4.3h1.1l-0.9 1.5q0-2.9 1.6-4.7 1.6-1.7 4.2-1.7 3 0 4.6 2.2 1.6 2.2 1.6 6.1l-1.7-3.4h2.6l-1.2 1.5q0-2.9 1.6-4.7 1.7-1.7 4.4-1.7 3.3 0 5.1 2.5 1.9 2.5 1.9 6.6v26.7h-5.4v-26.8q0-2.2-0.9-3.4-0.9-1.2-2.7-1.2-1.7 0-2.8 1.2-0.9 1.2-0.9 3.4v26.8h-4.6v-26.8q0-2.2-1-3.4-1-1.2-2.8-1.2-1.8 0-2.7 1.2-0.9 1.2-0.9 3.4z"/><path class="d" d="m388.9 185.4v0.4q-0.1 0.2-1.3 11-1.1 10.6-1.2 10.8v0.4h-25.8q-19.8 0-23.1 0-3.3-0.1-3.4-0.4v-0.1q-0.2-0.6 0-1l1.5-1.7q1.4-1.7 4.3-4.9 2.9-3.2 5.5-6.2l11.1-12.6q-11.4-15.4-22.5-31.1v-1.2q0-1.7 0.4-2.1 0.3-0.2 26.2-0.2h25.8v0.4q0 0.1 1.3 10.4 1.2 10.4 1.2 10.5v0.3h-3.6v-0.3q-1.2-8.7-4.1-12.3-2.8-3.7-10.4-4.5-3.5-0.3-15.3-0.3h-9.5l9.4 12.8q2.1 3 4.6 6.4 2.4 3.4 3.6 5.2l1.2 1.6q0.4 0.6 0.1 1l-22 25.2q22.7 0 24.6-0.1 5.5-0.3 8.3-1.1 2.8-0.8 5-3 3.4-3.6 4.4-11.8 0-0.3 0-0.7 0.1-0.3 0.1-0.5v-0.3z"/></svg>