<svg version="1.2" xmlns="http://www.w3.org/2000/svg" viewBox="0 0 480 320" width="480" height="320"><style>.a{fill:#141314}.b{fill:#211f21}.c{opacity:0;fill:#553f5d}.d{fill:none;stroke:#e2e0fb;stroke-linecap:round;stroke-linejoin:round;stroke-width:2}.e{opacity:.62;fill:#553f5d}.f{opacity:.25;fill:#553f5d}.g{opacity:.5;fill:#e2e0fb}.h{fill:#e2e0fb}.i{fill:none;stroke:#4d4256;stroke-linecap:round;stroke-linejoin:round}</style><path fill-rule="evenodd" class="a" d="m480 0v320h-480v-320z"/><path fill-rule="evenodd" class="b" d="m0 64v-64h480v64z"/><path fill-rule="evenodd" class="c" d="m33 52c-11.1 0-20-8.9-20-20 0-11.1 8.9-20 20-20 11.1 0 20 8.9 20 20 0 11.1-8.9 20-20 20z"/><path fill-rule="evenodd" class="d" d="m33 40c-4.4 0-8-3.6-8-8 0-4.4 3.6-8 8-8 4.4 0 8 3.6 8 8 0 4.4-3.6 8-8 8z"/><path fill-rule="evenodd" class="e" d="m81 52c-11.1 0-20-8.9-20-20 0-11.1 8.9-20 20-20 11.1 0 20 8.9 20 20 0 11.1-8.9 20-20 20z"/><path fill-rule="evenodd" class="d" d="m81 40c-4.4 0-8-3.6-8-8 0-4.4 3.6-8 8-8 4.4 0 8 3.6 8 8 0 4.4-3.6 8-8 8z"/><path fill-rule="evenodd" class="f" d="m18 76h209c4.4 0 8 3.6 8 8v226h-225v-226c0-4.4 3.6-8 8-8z"/><path fill-rule="evenodd" class="g" d="m235 309v1h-225v-1z"/><path class="h" d="m40 103.8h-5.9l21.4 55.6h5.9zm60.4 41.1q0 0.9-0.4 1.7-0.3 0.8-1 1.5-1.1 1.1-3 1.7-2 0.6-4.6 0.6-1.6 0-3.3-0.3-1.7-0.4-3.1-1.2-1.4-0.9-2.3-2.3-0.9-1.3-1.1-3.3h-6.5q0 2.4 1.1 4.7 1.1 2.2 3.3 3.9 2 1.7 5 2.8 3.1 1 6.9 1 3.4 0 6.3-0.8 2.8-0.8 4.8-2.3 2.1-1.5 3.2-3.6 1.2-2 1.2-4.6 0-2.3-1-4.1-1-1.8-2.9-3.2-1.9-1.3-4.7-2.3-2.8-0.9-6.3-1.7-2.7-0.5-4.4-1.1-1.7-0.5-2.8-1.2-1-0.7-1.4-1.6-0.5-0.9-0.5-2 0-1.1 0.6-2.1 0.5-1.1 1.5-1.8 1.1-0.8 2.6-1.3 1.6-0.4 3.7-0.4 2 0 3.6 0.5 1.6 0.6 2.7 1.5 1.1 0.9 1.8 2.1 0.6 1.2 0.6 2.4h6.5q0-2.5-1.1-4.6-1.1-2.2-3-3.8-2-1.6-4.8-2.5-2.8-1-6.3-1-3.3 0-6 0.9-2.8 0.9-4.7 2.4-2 1.5-3.1 3.6-1.1 2-1.1 4.3 0 2.3 1.1 4.1 1 1.8 3 3.1 1.9 1.3 4.5 2.3 2.7 0.9 6 1.6 2.7 0.5 4.5 1.2 1.8 0.6 2.9 1.4 1.1 0.8 1.5 1.7 0.5 0.9 0.5 2.1zm42.4 4.8l0.4 5.3h5.9v-38.1h-6.6v27.3q-0.5 1.3-1.3 2.3-0.8 1-1.8 1.8-1.3 0.9-3 1.4-1.7 0.5-3.9 0.5-1.9 0-3.3-0.5-1.4-0.5-2.4-1.7-1-1.2-1.5-3.2-0.5-2.1-0.5-5.2v-22.7h-6.5v22.6q0 4.3 0.9 7.4 1 3 2.7 5 1.7 1.9 4.1 2.9 2.5 0.9 5.5 0.9 3.7 0 6.5-1.6 2.9-1.5 4.8-4.4zm22.5-29.2l-0.2-3.6h-5.9v38.1h6.2v-30.3q0.2-0.6 0.6-1 0.3-0.5 0.8-0.9 0.6-0.5 1.4-0.8 0.9-0.2 2-0.2 1.1 0 1.9 0.2 0.8 0.3 1.3 0.8 0.6 0.6 0.8 1.6 0.3 0.9 0.3 2.1v28.5h6.2v-28.5q0-0.2 0-0.3 0-0.2 0-0.4 0.1-0.9 0.4-1.6 0.3-0.7 0.9-1.3 0.6-0.5 1.4-0.8 0.8-0.3 2-0.3 1.1 0 1.9 0.2 0.8 0.3 1.4 0.9 0.5 0.6 0.8 1.5 0.3 0.9 0.3 2.1v28.5h6.2v-28.4q0-2.8-0.6-4.8-0.7-2-1.9-3.3-1.1-1.1-2.6-1.7-1.6-0.6-3.6-0.6-1.4 0.1-2.7 0.4-1.2 0.4-2.2 1-0.7 0.5-1.4 1.2-0.7 0.7-1.2 1.5-0.3-0.9-0.9-1.6-0.5-0.7-1.2-1.2-0.9-0.6-2.1-0.9-1.2-0.4-2.7-0.4-2.7 0.1-4.6 1.2-1.9 1.1-3 3.1z"/><path fill-rule="evenodd" class="i" d="m267 76h181c12.2 0 22 9.8 22 22v190c0 12.2-9.8 22-22 22h-181c-12.2 0-22-9.8-22-22v-190c0-12.2 9.8-22 22-22z"/><path class="h" d="m384.9 200.4v0.4q-0.1 0.2-1.3 11-1.1 10.6-1.2 10.8v0.4h-25.8q-19.8 0-23.1 0-3.3-0.1-3.4-0.4v-0.1q-0.2-0.6 0-1l1.5-1.7q1.4-1.7 4.3-4.9 2.9-3.2 5.5-6.2l11.1-12.6q-11.4-15.4-22.5-31.1v-1.2q0-1.7 0.4-2.1 0.3-0.2 26.2-0.2h25.8v0.4q0 0.1 1.3 10.4 1.2 10.4 1.2 10.5v0.3h-3.6v-0.3q-1.2-8.7-4.1-12.3-2.8-3.7-10.4-4.5-3.5-0.3-15.3-0.3h-9.5l9.4 12.8q2.1 3 4.6 6.4 2.4 3.4 3.6 5.2l1.2 1.6q0.4 0.6 0.1 1l-22 25.2q22.7 0 24.6-0.1 5.5-0.3 8.3-1.1 2.8-0.8 5-3 3.4-3.6 4.4-11.8 0-0.3 0-0.7 0.1-0.3 0.1-0.5v-0.3z"/></svg>