<svg version="1.2" xmlns="http://www.w3.org/2000/svg" viewBox="0 0 480 320" width="480" height="320"><style>.a{fill:#383838}.b{fill:#2b2b2b;stroke:#212121;paint-order:stroke fill markers;stroke-linecap:square;stroke-miterlimit:100;stroke-width:2}.c{fill:#dfdfdf}.d{fill:#414141;stroke:#1f1f1f;stroke-linecap:round;stroke-linejoin:round;stroke-width:1}.e{fill:#414141;stroke:#202020;stroke-linecap:round;stroke-linejoin:round}.f{fill:#fff}.g{fill:#515151;stroke:#202020;stroke-linecap:round;stroke-linejoin:round}</style><path fill-rule="evenodd" class="a" d="m480 0v320h-480v-320z"/><path fill-rule="evenodd" class="b" d="m0 41v-41h480v41z"/><path fill-rule="evenodd" class="c" d="m21 28c-4.4 0-8-3.6-8-8 0-4.4 3.6-8 8-8 4.4 0 8 3.6 8 8 0 4.4-3.6 8-8 8z"/><path fill-rule="evenodd" class="d" d="m41 7h21c1.7 0 3 1.3 3 3v21c0 1.7-1.3 3-3 3h-21c-1.7 0-3-1.3-3-3v-21c0-1.7 1.3-3 3-3z"/><path fill-rule="evenodd" class="c" d="m52 28c-4.4 0-8-3.6-8-8 0-4.4 3.6-8 8-8 4.4 0 8 3.6 8 8 0 4.4-3.6 8-8 8z"/><path fill-rule="evenodd" class="e" d="m12 52h221c1.1 0 2 0.9 2 2v254c0 1.1-0.9 2-2 2h-221c-1.1 0-2-0.9-2-2v-254c0-1.1 0.9-2 2-2z"/><path class="f" d="m48.9 130.9l-19.9-62.2h6l20 62.2zm36.3-20.3q0-1.8-1.5-2.9-1.4-1.2-3.7-2-2.1-0.9-4.7-1.7-2.6-0.8-4.8-2.1-2.2-1.2-3.7-3-1.5-1.8-1.5-4.7 0-4 3.3-6.7 3.3-2.7 10.3-2.7 2.7 0 5.6 0.4 3 0.4 5 1l-1 5.4q-0.6-0.3-1.6-0.6-1-0.4-2.3-0.6-1.3-0.3-2.8-0.4-1.5-0.2-2.8-0.2-7.8 0-7.8 4.3 0 1.5 1.4 2.6 1.5 1 3.8 1.9 2.2 0.8 4.8 1.8 2.6 0.8 4.8 2.1 2.2 1.3 3.7 3.2 1.5 1.8 1.5 4.6 0 4.5-3.5 7-3.6 2.5-11.2 2.5-3.4 0-6.3-0.6-2.9-0.6-5.5-1.7l1.2-5.4q2.5 1.1 5.2 1.9 2.8 0.8 6 0.8 8.1 0 8.1-4.2zm41.6-25v32.5q-1.9 0.5-5.1 1-3.2 0.6-7.5 0.6-3.9 0-6.4-1.1-2.5-1.1-4.1-3.1-1.6-2.1-2.2-4.9-0.7-2.8-0.7-6.2v-18.8h5.9v17.5q0 6.2 1.8 8.8 1.9 2.6 6.2 2.6 1 0 1.9-0.1 1-0.1 1.9-0.2 0.8-0.1 1.5-0.2 0.6-0.1 0.9-0.2v-28.2zm8 33.4v-32.5q4.3-1.6 8.2-1.6 2 0 3.8 0.6 1.9 0.6 3.2 1.9 3.1-2.5 6.6-2.5 1.8 0 3.3 0.6 1.6 0.7 2.7 2 1.2 1.3 2 3.2 0.7 1.9 0.7 4.5v23.8h-5.4v-23.9q0-2.6-1.2-4-1.1-1.3-2.9-1.3-0.8 0-1.8 0.4-0.9 0.4-1.7 1.4 0.5 1.6 0.5 3.6v10.9h-5.4v-10.9q0-2.6-0.8-4-0.8-1.4-3.1-1.4-1.5 0-3.3 0.6v28.6z"/><path fill-rule="evenodd" class="g" d="m470 52v258h-225v-258z"/><path class="f" d="m384.9 189.4v0.4q-0.1 0.2-1.3 11-1.1 10.6-1.2 10.8v0.4h-25.8q-19.8 0-23.1 0-3.3-0.1-3.4-0.4v-0.1q-0.2-0.6 0-1l1.5-1.7q1.4-1.7 4.3-4.9 2.9-3.2 5.5-6.2l11.1-12.6q-11.4-15.4-22.5-31.1v-1.2q0-1.7 0.4-2.1 0.3-0.2 26.2-0.2h25.8v0.4q0 0.1 1.3 10.4 1.2 10.4 1.2 10.5v0.3h-3.6v-0.3q-1.2-8.7-4.1-12.3-2.8-3.7-10.4-4.5-3.5-0.3-15.3-0.3h-9.5l9.4 12.8q2.1 3 4.6 6.4 2.4 3.4 3.6 5.2l1.2 1.6q0.4 0.6 0.1 1l-22 25.2q22.7 0 24.6-0.1 5.5-0.3 8.3-1.1 2.8-0.8 5-3 3.4-3.6 4.4-11.8 0-0.3 0-0.7 0.1-0.3 0.1-0.5v-0.3z"/></svg>